<?xml version="1.0" standalone="no"?><!DOCTYPE svg PUBLIC "-//W3C//DTD SVG 1.1//EN" "http://www.w3.org/Graphics/SVG/1.1/DTD/svg11.dtd"><svg t="1659490592872" class="icon" viewBox="0 0 1024 1024" version="1.1" xmlns="http://www.w3.org/2000/svg" p-id="7719" xmlns:xlink="http://www.w3.org/1999/xlink" width="100" height="100"><defs><style type="text/css">@font-face { font-family: feedback-iconfont; src: url("//at.alicdn.com/t/font_1031158_u69w8yhxdu.woff2?t=1630033759944") format("woff2"), url("//at.alicdn.com/t/font_1031158_u69w8yhxdu.woff?t=1630033759944") format("woff"), url("//at.alicdn.com/t/font_1031158_u69w8yhxdu.ttf?t=1630033759944") format("truetype"); }
</style></defs><path d="M487.58784 207.714987c-167.799467 0-303.8208 136.02816-303.8208 303.8208s136.02816 303.8208 303.8208 303.8208c167.799467 0 303.8208-136.02816 303.8208-303.8208S655.38048 207.714987 487.58784 207.714987z m0 400.964266c-53.650773 0-97.143467-43.492693-97.143467-97.143466s43.492693-97.143467 97.143467-97.143467 97.143467 43.492693 97.143467 97.143467-43.49952 97.143467-97.143467 97.143466z" fill="#FCC979" p-id="7720"></path><path d="M531.428693 606.153387c6.956373 1.59744 14.17216 2.51904 21.613227 2.51904 53.316267 0 96.54272-43.219627 96.54272-96.54272 0-53.316267-43.219627-96.54272-96.54272-96.54272-7.441067 0-14.656853 0.9216-21.613227 2.51904 42.891947 9.823573 62.682453 39.355733 62.682454 85.230933 0.006827 45.8752-19.78368 92.992853-62.682454 102.816427zM233.24672 506.63424c0-159.484587 123.671893-289.9968 280.33024-301.090133a305.943893 305.943893 0 0 0-21.613227-0.853334c-166.761813 0-301.943467 135.18848-301.943466 301.943467 0 166.761813 135.18848 301.943467 301.943466 301.943467 7.277227 0 14.465707-0.34816 21.613227-0.853334-156.658347-11.093333-280.33024-141.605547-280.33024-301.090133z" fill="#E3A443" p-id="7721"></path><path d="M795.648 471.094613c-20.52096-150.452907-149.449387-266.40384-305.534293-266.40384-166.652587 0-302.359893 132.184747-308.18304 297.424214a36.502187 36.502187 0 0 0-0.238934 4.07552v5.26336c0 0.57344-0.04096 1.133227-0.04096 1.706666 0 0.57344 0.04096 1.133227 0.04096 1.706667v52.770133c0 19.43552 14.103893 36.877653 33.437014 38.85056a37.23264 37.23264 0 0 0 12.1856-0.750933c14.90944-3.44064 25.217707-17.155413 26.37824-32.413013 0.116053-1.55648 0.232107-3.119787 0.341333-5.031254l0.32768-25.900373c0-21.449387 12.65664-39.437653 34.0992-38.939307 19.613013 0.457387 33.122987 15.844693 33.122987 37.29408l-0.32768 113.124694c0 7.871147 0-58.094933-0.232107-49.60256V674.2016c0 19.449173 14.117547 36.898133 33.46432 38.857387 22.207147 2.245973 41.117013-15.325867 41.117013-37.096107l-1.51552-130.218667v-15.435093c0-5.147307 0.744107-14.19264 0.744107-19.217067 0-54.469973 40.81664-96.556373 95.279787-96.556373 53.9648 0 97.737387 43.35616 98.54976 97.129813-0.02048 0.512-0.075093 1.017173-0.075094 1.536v3.33824c-0.16384 3.843413 0.559787 7.63904 0 11.3664v15.91296c0 20.507307 16.779947 37.29408 37.29408 37.29408 6.560427 0 12.731733-1.72032 18.097494-4.73088 7.830187-4.396373 12.41088-12.950187 12.41088-21.927253v-15.660373c0-19.278507 15.243947-35.98336 34.515626-35.79904 20.036267 0.191147 32.761173 18.998613 33.109334 35.341653l-0.73728 29.088427c0 7.796053 0 9.939627 0.129706 21.449386 2.2528 18.39104 18.008747 32.768 36.98688 32.768 20.514133 0 37.184853-21.592747 37.29408-37.29408l0.512-56.44288c0.232107-4.887893 0.375467-9.803093 0.375467-14.752426 0-7.49568-0.361813-14.902613-0.887467-22.26176" fill="#A6503F" p-id="7722"></path><path d="M226.187947 571.65824v-52.10112c0-0.55296-0.04096-1.092267-0.04096-1.645227 0-0.55296 0.04096-1.092267 0.04096-1.645226v-5.072214c0-1.3312 0.08192-2.635093 0.22528-3.93216 5.618347-159.389013 136.51968-286.897493 297.280853-286.897493 6.055253 0 12.04224 0.24576 18.008747 0.600747a298.63936 298.63936 0 0 0-56.784214-5.44768c-160.761173 0-291.662507 127.50848-297.280853 286.897493a35.566933 35.566933 0 0 0-0.22528 3.93216v5.072213c0 0.55296-0.04096 1.092267-0.04096 1.645227 0 0.55296 0.04096 1.092267 0.04096 1.645227v52.10112c0 19.78368 13.653333 31.791787 33.437013 31.791786 5.666133 0 11.188907-2.198187 15.960747-4.560213-7.857493-6.61504-10.622293-11.373227-10.622293-22.38464zM634.641067 540.644693v-15.346346c0.539307-3.597653-0.157013-7.256747 0-10.963627v-3.222187c0-0.498347 0.054613-0.989867 0.075093-1.481386-0.77824-51.869013-43.008-93.696-95.061333-93.696-2.655573 0-5.26336 0.18432-7.86432 0.395946 36.891307 12.6976 63.535787 47.377067 64.150186 88.446294-0.02048 0.498347-0.075093 0.98304-0.075093 1.481386v3.222187c-0.157013 3.70688 0.539307 7.365973 0 10.963627v15.346346c0 19.78368 10.274133 38.017707 30.06464 38.017707l8.362667-1.522347c5.659307 0 8.362667-1.522347 12.158293-6.08256-7.857493-6.601387-11.810133-14.547627-11.810133-25.55904z" fill="#963D2D" p-id="7723"></path><path d="M292.399787 411.136m-26.965334 0a26.965333 26.965333 0 1 0 53.930667 0 26.965333 26.965333 0 1 0-53.930667 0Z" fill="#F89FB1" p-id="7724"></path><path d="M613.096107 389.522773m-26.965334 0a26.965333 26.965333 0 1 0 53.930667 0 26.965333 26.965333 0 1 0-53.930667 0Z" fill="#F89FB1" p-id="7725"></path><path d="M404.964693 330.007893m-26.965333 0a26.965333 26.965333 0 1 0 53.930667 0 26.965333 26.965333 0 1 0-53.930667 0Z" fill="#84E2FD" p-id="7726"></path><path d="M548.775253 276.077227m-26.965333 0a26.965333 26.965333 0 1 0 53.930667 0 26.965333 26.965333 0 1 0-53.930667 0Z" fill="#FDE96C" p-id="7727"></path><path d="M717.202773 435.329707m-26.965333 0a26.965333 26.965333 0 1 0 53.930667 0 26.965333 26.965333 0 1 0-53.930667 0Z" fill="#53C48B" p-id="7728"></path></svg>