<?xml version="1.0" standalone="no"?><!DOCTYPE svg PUBLIC "-//W3C//DTD SVG 1.1//EN" "http://www.w3.org/Graphics/SVG/1.1/DTD/svg11.dtd"><svg t="1659490309101" class="icon" viewBox="0 0 2339 1024" version="1.1" xmlns="http://www.w3.org/2000/svg" p-id="2533" xmlns:xlink="http://www.w3.org/1999/xlink" width="228.41796875" height="100"><defs><style type="text/css">@font-face { font-family: feedback-iconfont; src: url("//at.alicdn.com/t/font_1031158_u69w8yhxdu.woff2?t=1630033759944") format("woff2"), url("//at.alicdn.com/t/font_1031158_u69w8yhxdu.woff?t=1630033759944") format("woff"), url("//at.alicdn.com/t/font_1031158_u69w8yhxdu.ttf?t=1630033759944") format("truetype"); }
</style></defs><path d="M23.985183 881.246637h2234.082536v93.554145H23.985183z" fill="#92CAEE" p-id="2534"></path><path d="M625.524017 426.960117h-158.707925V357.987801H343.071643v68.972316h-158.707926c-23.865853 0-43.077865 69.091646-43.077865 89.735609H668.243895c0-20.643963-18.973353-89.735609-42.719878-89.735609zM693.183712 580.894872H116.584694c-8.472378 17.780061-1.073963 38.543353 0 62.289877 3.937866 70.523597 148.803596 175.175364 221.594449 175.175364H471.350605c72.910182 0 217.775912-104.651767 221.594448-175.175364 1.312622-23.746524 8.830366-44.509817 0.238659-62.289877z" fill="#F3D24F" p-id="2535"></path><path d="M188.182254 639.366212c-1.312622-21.717927-8.233719-41.287926-3.341219-58.47134H117.18134c-9.665671 17.780061-1.312622 38.543353 0 62.289877 4.295854 70.523597 167.776949 175.175364 249.875485 175.175364h40.213963c-91.16756-26.610427-215.150668-115.63006-219.088534-178.993901z" fill="#BFAD65" p-id="2536"></path><path d="M253.336034 556.79036H116.584694a24.581829 24.581829 0 0 0-23.149878 17.660731c-25.655792 95.463414 47.13506 172.669449 120.761218 220.759144 62.647865 40.929939 119.329267 47.731707 190.926827 47.731707 68.733658 0 123.625121-4.8925 184.483047-43.077865C665.499322 751.774382 742.705358 672.659078 715.975602 574.451091a24.701158 24.701158 0 0 0-23.269207-17.660731H447.246093c-30.90628 0-30.90628 47.731707 0 47.731706h245.937619l-23.149878-17.660731c23.865853 88.303658-73.745487 160.139876-143.19512 190.926827-40.333292 18.376707-79.353963 15.632134-122.312499 15.632134s-81.979206 2.625244-122.193169-15.632134c-69.091646-31.264268-167.060974-103.100487-143.195121-190.926827l-22.553231 18.018719h136.75134c30.90628 0 31.025609-47.731707 0-47.731707z" fill="#49494A" p-id="2537"></path><path d="M310.256094 604.880054c30.90628 0 31.025609-47.731707 0-47.731707s-31.025609 47.731707 0 47.731707zM177.919937 403.69091c-43.197195 11.932927-57.755365 74.103475-60.619268 113.004816a23.865853 23.865853 0 0 0 23.865854 23.865853H465.384141c30.90628 0 31.025609-47.731707 0-47.731706H141.285852l23.865853 23.865853c1.909268-15.512805 8.711036-61.93189 25.775122-66.585731 29.712987-8.353049 17.064085-54.772134-12.768231-46.419085z" fill="#49494A" p-id="2538"></path><path d="M236.510607 450.9453c30.90628 0 31.025609-47.731707 0-47.731707s-31.025609 47.731707 0 47.731707z" fill="#49494A" p-id="2539"></path><path d="M552.613835 540.680909H668.243895a23.865853 23.865853 0 0 0 23.865853-23.865854c-3.22189-44.748475-19.927988-108.112316-71.59756-113.84012s-103.816462 0-154.292742 0l23.865853 23.865853V357.987801a23.865853 23.865853 0 0 0-23.865853-23.865853H343.071643a23.865853 23.865853 0 0 0-23.865854 23.865853v68.972316l23.865854-23.865853h-51.311585c-30.90628 0-30.90628 47.731707 0 47.731707h51.311585a23.865853 23.865853 0 0 0 23.865853-23.865854V357.987801l-23.865853 23.865853h123.744449l-23.865853-23.865853v68.972316a23.865853 23.865853 0 0 0 23.865853 23.865854h108.350975c8.233719 0 39.975304-5.011829 47.731707 0 12.768232 8.472378 20.643963 50.118292 21.837255 65.750426l23.865854-23.865854h-115.988048c-30.90628 0-31.025609 47.731707 0 47.731707zM2258.067719 857.142125H23.865853a24.4625 24.4625 0 0 0-23.865853 23.865853v93.554145a23.865853 23.865853 0 0 0 23.865853 23.865854h2234.201866a23.865853 23.865853 0 0 0 23.865853-23.865854v-93.315486c0-30.90628-47.731707-31.025609-47.731707 0v93.554145l23.865854-23.865854H23.865853l23.865854 23.865854v-93.554145l-23.865854 23.865853h2234.201866c30.90628 0.119329 31.025609-47.970365 0-47.970365z" fill="#49494A" p-id="2540"></path><path d="M2066.902233 494.023165c-21.359939 0-40.452622-14.558171-53.69817 0a72.552194 72.552194 0 0 0-107.39634 0c-13.364878-14.558171-32.457561 0-53.69817 0a72.790853 72.790853 0 0 0-68.495 47.731707v17.660732H2135.993879v-17.541403a72.910182 72.910182 0 0 0-69.091646-47.851036z" fill="#0F7888" p-id="2541"></path><path d="M2172.627964 627.433286h-426.244142v49.998963c1.193293 56.800731 119.329267 140.927864 178.158596 140.927864h69.568962c58.59067 0 176.965303-83.530487 178.158596-140.927864 0.477317-18.734695 0.357988-30.428963 0.357988-49.998963z" fill="#F3D24F" p-id="2542"></path><path d="M2040.530465 788.289138h-69.568962c-58.59067 0-176.965303-84.127133-178.158596-140.808535v-20.047317h-45.58378v49.998963c1.193293 56.800731 119.329267 140.927864 178.158596 140.927864h69.568962c30.428963 0 76.967377-22.79189 114.914084-52.504878a160.736523 160.736523 0 0 1-69.330304 22.433903z" fill="#BFAD65" p-id="2543"></path><path d="M1967.023637 603.328774h-220.639815a24.581829 24.581829 0 0 0-23.865853 23.865853v49.998963c0 30.90628 48.567012 31.025609 47.731707 0v-49.998963l-23.865854 23.865854h220.639815c30.90628 0 31.025609-47.731707 0-47.731707z" fill="#49494A" p-id="2544"></path><path d="M1805.093821 792.227003c67.659694 47.731707 158.707925 69.688292 238.658534 39.14a309.420789 309.420789 0 0 0 114.914085-78.399328c35.79878-39.617317 37.946707-73.864816 37.827377-125.534389a23.865853 23.865853 0 0 0-23.865853-23.865854h-127.443657c-30.90628 0-31.025609 47.731707 0 47.731707h127.443657l-23.865854-23.865853c0 49.640975-4.8925 77.086706-43.793841 110.976218-26.610427 23.269207-61.573902 47.015731-96.656706 54.056158a230.424815 230.424815 0 0 1-178.9939-41.645914c-25.417134-17.780061-49.521646 23.865853-23.865854 41.407255zM1773.590895 755.35426c30.90628 0 30.90628-47.731707 0-47.731707s-31.025609 47.731707 0 47.731707zM2030.148819 477.317068a99.401279 99.401279 0 0 0-141.405181 0l29.116341-3.699207c-28.161707-18.257378-80.666584-7.279085-109.18628 7.279085a85.201097 85.201097 0 0 0-49.163658 78.995975c0 30.90628 47.731707 31.025609 47.731707 0 0-21.001951 10.142988-30.90628 32.099573-38.185366 9.188354-2.983232 44.748475-11.932927 53.936829-6.682439a23.865853 23.865853 0 0 0 29.116341-3.699207 50.47628 50.47628 0 0 1 73.387499 0c22.672561 21.001951 56.681402-12.887561 34.008841-34.008841zM2054.134002 583.520115H2135.993879a23.865853 23.865853 0 0 0 23.865853-23.865853v-17.780061c0-30.90628-47.731707-30.90628-47.731707 0v17.660732l23.865854-23.865854h-81.263231c-30.90628 0-30.90628 47.731707 0 47.731707zM2095.183269 406.554813V269.684143c0-30.90628-47.731707-31.025609-47.731706 0v136.87067c0 30.90628 47.731707 30.90628 47.731706 0zM2071.198087 225.293656c30.90628 0 31.025609-47.731707 0-47.731707s-31.025609 47.731707 0 47.731707zM1898.17065 406.554813V269.684143c0-30.90628-47.731707-31.025609-47.731707 0v136.87067c0 30.90628 47.731707 30.90628 47.731707 0zM1991.128149 338.059813V201.308473c0-30.90628-47.731707-31.025609-47.731707 0v136.75134c0 31.025609 47.731707 31.025609 47.731707 0zM1991.128149 137.705974V99.28195a23.865853 23.865853 0 0 0-47.731707 0v38.424024a23.865853 23.865853 0 0 0 23.865853 23.865853 24.581829 24.581829 0 0 0 23.865854-23.865853zM1874.066138 193.074754c31.025609 0 31.025609-47.731707 0-47.731707s-30.90628 47.731707 0 47.731707z" fill="#49494A" p-id="2545"></path><path d="M1319.543034 118.135974a230.305485 230.305485 0 0 1 114.675426 30.309634 329.110118 329.110118 0 0 0-34.128171-27.326402 314.432618 314.432618 0 0 0-68.017682-35.79878 53.101524 53.101524 0 0 0-85.201096-19.331341h-5.01183a53.220853 53.220853 0 0 0-95.463413 7.875731 52.862865 52.862865 0 0 0-29.116341-8.711036 53.459512 53.459512 0 0 0-51.311585 39.855975 51.908231 51.908231 0 0 0-21.956585-4.8925A53.578841 53.578841 0 0 0 990.432916 153.696096a47.731707 47.731707 0 0 0 1.073963 10.262317l-3.102561 3.22189h-5.011829c-29.593658 0-85.320426 45.225792-60.380609 107.39634H1100.215841A232.453412 232.453412 0 0 1 1319.543034 118.135974z" fill="#ECEBEB" p-id="2546"></path><path d="M1239.115108 150.712864c30.90628 0 31.025609-47.731707 0-47.731707s-31.025609 47.731707 0 47.731707zM1162.863707 207.513595a223.384388 223.384388 0 0 1 37.588719-33.770182 24.581829 24.581829 0 0 0 8.591707-32.815549 23.865853 23.865853 0 0 0-32.815548-8.711036 274.457314 274.457314 0 0 0-47.731707 41.287926 23.865853 23.865853 0 0 0 34.008841 34.008841z" fill="#49494A" p-id="2547"></path><path d="M1460.948216 275.650607a155.128047 155.128047 0 0 0-282.810363 0z" fill="#0F7888" p-id="2548"></path><path d="M1319.543034 159.423901A184.483047 184.483047 0 0 0 1157.49389 263.598351a23.865853 23.865853 0 0 0 20.763292 35.79878h282.810363c30.90628 0 30.90628-47.731707 0-47.731707H1178.137853l20.763292 35.79878a136.274023 136.274023 0 0 1 120.641889-80.308597c30.786951-1.55128 31.025609-49.640975 0-47.731706z" fill="#49494A" p-id="2549"></path><path d="M1599.012177 347.248167H862.7506c-59.664633 0-110.498901 79.353963-84.365792 128.398291 39.736646 74.222804 94.628109 181.380486 132.455487 257.512558 22.433902 45.464451 62.528536 85.201097 121.835181 85.201097h396.531155c59.664633 0 99.401279-39.736646 121.95451-85.201097 37.708048-76.132072 92.71884-183.289754 132.336157-257.512558 26.252439-49.044329-24.820488-128.398291-84.485121-128.398291z" fill="#92CAEE" p-id="2550"></path><path d="M1027.424989 750.342431C985.301757 665.499322 937.808709 560.131579 893.537551 477.317068c-19.092683-35.79878-35.202134-99.520609-2.147927-130.068901h-28.639024c-59.664633 0-110.498901 79.353963-84.365792 128.398291 39.736646 74.222804 94.628109 181.380486 132.455487 257.512558 22.433902 45.464451 62.528536 85.201097 121.835181 85.201097H1062.030476c-10.978293-21.001951-21.717927-41.884573-34.605487-68.017682z" fill="#5DA1D3" p-id="2551"></path><path d="M1222.170352 323.262984h-93.912133c-30.90628 0-30.90628 47.731707 0 47.731707h93.912133c30.90628 0 31.025609-47.731707 0-47.731707zM1706.408518 482.090239c21.24061-53.220853-7.995061-116.226706-56.442744-144.269084-30.667622-17.780061-64.199146-14.558171-98.207986-14.558171h-246.056949c-30.90628 0-30.90628 47.731707 0 47.731707h173.146767c34.2475 0 68.972316-1.67061 103.100486 0 49.998963 2.625244 100.833231 41.765243 78.399329 98.088657-11.932927 28.758353 34.963475 41.168597 46.299755 12.768232zM1276.823157 842.345296c59.664633 0 126.131035 9.307683 184.363717-3.699208 47.731707-10.620305 83.530487-44.629146 107.39634-86.633048 37.350061-65.869755 68.256341-136.035364 103.577804-202.859753 14.438841-27.326402-27.087744-51.669573-41.526585-23.865854q-42.839207 81.263231-83.530487 163.600425c-26.968414 54.175487-53.936829 102.265182-120.999876 105.964389-49.402317 2.744573-99.639938 0-149.161584 0-30.90628 0-30.90628 47.731707 0 47.731707zM1205.225596 842.345296c30.90628 0 30.90628-47.731707 0-47.731707s-31.025609 47.731707 0 47.731707zM1039.477245 323.262984c-57.874694 0-117.658657-4.415183-175.294694 0-83.530487 6.324451-140.211889 95.463414-102.742498 171.714815 29.593658 60.738597 62.886524 119.329267 93.315486 180.067864 23.865853 47.731707 44.390487 102.861828 88.661646 136.632011 57.278048 43.793841 138.42195 30.667622 206.081644 30.667622 31.025609 0 31.025609-47.731707 0-47.731707-44.987134 0-99.759267 8.830366-143.195121-3.579878C952.24755 775.640235 930.768282 720.271455 908.692368 675.403651q-35.79878-71.59756-73.148841-143.19512c-23.865853-46.896402-65.511768-104.771096-8.11439-146.417011 24.939817-18.138049 50.237621-15.035488 79.234633-15.035488h132.813475c30.90628 0 31.025609-47.731707 0-47.731706z" fill="#49494A" p-id="2552"></path><path d="M1572.163092 275.650607a6.682439 6.682439 0 0 0-1.55128 0z" fill="#ECEBEB" p-id="2553"></path><path d="M1650.920409 202.859754a76.49006 76.49006 0 0 0-72.313536-80.427926H1575.146324a74.580792 74.580792 0 0 0 4.773171-22.672561 76.49006 76.49006 0 0 0-152.860791-7.995061 10.262317 10.262317 0 0 1 0 1.909269 296.771887 296.771887 0 0 1 34.724816 23.030548 318.728472 318.728472 0 0 1 110.498902 158.588596 76.370731 76.370731 0 0 0 78.637987-72.432865z" fill="#BFAD65" p-id="2554"></path><path d="M1455.817057 7.756402a101.310548 101.310548 0 0 0-52.624207 86.27506c0 30.90628 47.731707 30.90628 47.731707 0A52.624207 52.624207 0 0 1 1479.68291 49.282987c26.968414-15.154817 2.863902-56.681402-23.865853-41.526585zM1528.965898 47.731707c30.90628 0 30.90628-47.731707 0-47.731707s-31.025609 47.731707 0 47.731707zM1572.163092 299.635789a102.026523 102.026523 0 0 0 102.742499-101.191218A101.310548 101.310548 0 0 0 1575.146324 98.804633l23.269207 30.428963a181.738474 181.738474 0 0 0 5.489146-29.116341c3.937866-30.548292-44.151829-30.309634-47.731706 0l-3.818537 16.34811a23.865853 23.865853 0 0 0 22.79189 30.428963c70.04628 0 65.15378 102.62317-2.863902 104.651767-30.90628 0.954634-31.025609 49.044329 0 47.731707zM1034.465415 298.323167h65.750426c30.90628 0 31.025609-47.731707 0-47.731706h-65.750426c-30.90628 0-31.025609 47.731707 0 47.731706z" fill="#49494A" p-id="2555"></path><path d="M1200.929743 16.467439a91.16756 91.16756 0 0 0-42.242561 13.00689 109.663596 109.663596 0 0 0-19.569999 23.865853h23.865853c-50.118292-23.865853-95.463414-5.847134-115.988048 45.225793l29.474329-16.706098a79.115304 79.115304 0 0 0-80.785913 15.154817 76.012743 76.012743 0 0 0-22.314573 35.79878 60.857926 60.857926 0 0 0-2.863903 20.643963c-1.312622-5.727805 33.412195-13.126219 5.966464-9.66567-63.721829 8.11439-88.780975 83.530487-72.552195 136.154693A24.581829 24.581829 0 0 0 927.546392 298.323167h40.929939c30.90628 0 30.90628-47.731707 0-47.731706h-40.929939l23.149878 17.660731c-8.233719-27.087744-4.057195-57.874694 23.865853-71.59756 9.188354-4.534512 19.689329-1.55128 27.565061-6.324451 30.548292-18.257378 11.932927-78.041341 61.93189-60.977256a24.701158 24.701158 0 0 0 29.593658-16.706097c7.637073-18.496036 49.879634-11.932927 66.824389-15.393475 18.854024-3.818537 11.33628-27.923048 40.333293-31.502927s30.667622-51.908231 0-47.731707zM1357.489741 73.626158a78.041341 78.041341 0 0 0-70.284938-45.106463c-30.90628-0.835305-30.90628 47.731707 0 47.731707a30.786951 30.786951 0 0 1 28.758353 21.359938 23.865853 23.865853 0 0 0 32.815549 8.711037 24.701158 24.701158 0 0 0 8.711036-32.934878z" fill="#49494A" p-id="2556"></path><path d="M937.331392 103.339145a117.062011 117.062011 0 0 1 46.538414-59.664633 119.329267 119.329267 0 0 0-26.252439-3.102561 118.016645 118.016645 0 0 0-99.759267 181.261156 137.944633 137.944633 0 0 1 23.865854-68.614328 150.474206 150.474206 0 0 1 55.607438-49.879634z" fill="#F3D24F" p-id="2557"></path><path d="M857.8581 245.81829c30.90628 0 30.90628-47.731707 0-47.731707s-31.025609 47.731707 0 47.731707zM990.432916 20.285975a144.269084 144.269084 0 0 0-175.056035 138.302621c-1.073963 31.025609 47.015731 30.90628 47.731707 0a95.463414 95.463414 0 0 1 113.95945-91.883536c30.190305 5.727805 43.197195-40.571951 12.768232-46.419085zM981.125233 426.960117a31.264268 31.264268 0 0 1-62.409207 0c-1.67061-30.786951-49.760304-31.025609-47.731706 0a79.353963 79.353963 0 0 0 158.588595 0c1.67061-30.90628-46.419085-30.90628-47.731706 0zM1162.625048 426.960117a31.264268 31.264268 0 0 1-62.409207 0c-1.67061-30.786951-49.760304-31.025609-47.731706 0a79.353963 79.353963 0 0 0 158.588595 0c1.67061-30.90628-46.419085-30.90628-47.731706 0zM1344.124863 426.960117a31.264268 31.264268 0 0 1-62.409206 0c-1.67061-30.786951-49.760304-31.025609-47.731707 0a79.353963 79.353963 0 0 0 158.588596 0c1.67061-30.90628-46.419085-30.90628-47.731707 0zM1525.624678 426.960117a31.264268 31.264268 0 0 1-62.409206 0c-1.67061-30.786951-49.760304-31.025609-47.731707 0a79.353963 79.353963 0 0 0 158.588596 0c1.67061-30.90628-46.419085-30.90628-47.731707 0zM1377.417729 725.402614H1276.823157c-30.90628 0-30.90628 47.731707 0 47.731707h100.952559c30.90628 0 31.025609-47.731707 0-47.731707zM1443.88413 773.492309c31.025609 0 31.025609-47.731707 0-47.731707s-30.90628 47.731707 0 47.731707z" fill="#49494A" p-id="2558"></path><path d="M1005.229745 450.9453h71.59756c30.90628 0 30.90628-47.731707 0-47.731707h-71.59756c-30.90628 0-31.025609 47.731707 0 47.731707zM1185.655597 450.9453h71.59756c30.90628 0 31.025609-47.731707 0-47.731707h-71.59756c-30.90628 0-31.025609 47.731707 0 47.731707zM1368.229375 450.9453h71.59756c30.90628 0 30.90628-47.731707 0-47.731707h-71.59756c-30.90628 0-31.025609 47.731707 0 47.731707zM1616.911567 450.9453c31.025609 0 31.025609-47.731707 0-47.731707s-30.90628 47.731707 0 47.731707zM260.49579 368.130789V122.909145a24.939817 24.939817 0 0 0-17.541402-23.149878l-71.597561-30.070975a23.865853 23.865853 0 0 0-28.161707 11.097622l-34.724816 64.199145c-14.916158 27.087744 26.610427 51.430914 41.407255 23.865854l35.79878-64.199146-27.207072 11.097622 71.59756 29.951646-17.541403-22.79189v245.221644c0 30.90628 47.731707 30.90628 47.731707 0z" fill="#49494A" p-id="2559"></path></svg>